<mxfile host="65bd71144e">
    <diagram id="rD_lds2NrlN1luSYMRQo" name="Arquitetura em Camadas">
        <mxGraphModel dx="779" dy="559" grid="1" gridSize="10" guides="1" tooltips="1" connect="1" arrows="1" fold="1" page="1" pageScale="1" pageWidth="850" pageHeight="1100" math="0" shadow="0">
            <root>
                <mxCell id="0"/>
                <mxCell id="1" parent="0"/>
                <mxCell id="2" value="ecommerce-node-api (back-end)" style="verticalAlign=top;align=left;spacingTop=8;spacingLeft=2;spacingRight=12;shape=cube;size=10;direction=south;fontStyle=4;html=1;strokeWidth=2;fillColor=#999999;fontColor=#000000;strokeColor=#000000;" parent="1" vertex="1">
                    <mxGeometry x="175" y="340.5" width="500" height="420" as="geometry"/>
                </mxCell>
                <mxCell id="6" value="ecommerce-web-app (front-end)" style="verticalAlign=top;align=left;spacingTop=8;spacingLeft=2;spacingRight=12;shape=cube;size=10;direction=south;fontStyle=4;html=1;strokeWidth=2;fillColor=#999999;strokeColor=#000000;fontColor=#000000;" parent="1" vertex="1">
                    <mxGeometry x="175" y="220" width="500" height="101" as="geometry"/>
                </mxCell>
                <mxCell id="7" value="" style="shape=cylinder3;whiteSpace=wrap;html=1;boundedLbl=1;backgroundOutline=1;size=15;strokeWidth=2;fontColor=#000000;fillColor=#999999;strokeColor=#000000;" parent="1" vertex="1">
                    <mxGeometry x="288" y="792.5" width="275" height="100" as="geometry"/>
                </mxCell>
                <mxCell id="8" value="&lt;font style=&quot;font-size: 16px;&quot;&gt;Database (Relaconal)&lt;/font&gt;" style="text;html=1;strokeColor=none;fillColor=none;align=center;verticalAlign=middle;whiteSpace=wrap;rounded=0;strokeWidth=2;fontColor=#000000;" parent="1" vertex="1">
                    <mxGeometry x="337.5" y="820.5" width="175" height="44" as="geometry"/>
                </mxCell>
                <mxCell id="9" value="" style="rounded=1;whiteSpace=wrap;html=1;strokeWidth=2;fillColor=#FF3333;" parent="1" vertex="1">
                    <mxGeometry x="275" y="575.5" width="380" height="70" as="geometry"/>
                </mxCell>
                <mxCell id="10" value="&lt;font style=&quot;font-size: 10px;&quot;&gt;&lt;b&gt;Camada de domínio&lt;/b&gt;&lt;/font&gt;" style="text;html=1;strokeColor=none;fillColor=none;align=center;verticalAlign=middle;whiteSpace=wrap;rounded=0;strokeWidth=2;fontColor=#000000;" parent="1" vertex="1">
                    <mxGeometry x="276" y="576.5" width="100" height="20" as="geometry"/>
                </mxCell>
                <mxCell id="11" value="" style="rounded=1;whiteSpace=wrap;html=1;strokeWidth=2;fillColor=#FF9933;" parent="1" vertex="1">
                    <mxGeometry x="185" y="380.5" width="260" height="70" as="geometry"/>
                </mxCell>
                <mxCell id="54" style="edgeStyle=none;html=1;exitX=0.14;exitY=0;exitDx=0;exitDy=0;exitPerimeter=0;entryX=0;entryY=0.75;entryDx=0;entryDy=0;dashed=1;strokeColor=#000000;strokeWidth=2;fontSize=8;fontColor=#000000;" parent="1" source="13" target="44" edge="1">
                    <mxGeometry relative="1" as="geometry">
                        <Array as="points">
                            <mxPoint x="230" y="530.5"/>
                        </Array>
                    </mxGeometry>
                </mxCell>
                <mxCell id="57" style="edgeStyle=none;html=1;entryX=0.25;entryY=1;entryDx=0;entryDy=0;dashed=1;strokeColor=#000000;strokeWidth=2;fontSize=8;fontColor=#000000;" parent="1" target="9" edge="1">
                    <mxGeometry relative="1" as="geometry">
                        <mxPoint x="333" y="670.5" as="sourcePoint"/>
                    </mxGeometry>
                </mxCell>
                <mxCell id="13" value="" style="rounded=1;whiteSpace=wrap;html=1;strokeWidth=2;fillColor=#66FF66;points=[[0,0,0,0,0],[0,0.25,0,0,0],[0,0.51,0,0,0],[0,0.75,0,0,0],[0,1,0,0,0],[0.14,0,0,0,0],[0.25,1,0,0,0],[0.47,0,0,0,0],[0.5,1,0,0,0],[0.75,0,0,0,0],[0.75,1,0,0,0],[1,0,0,0,0],[1,0.25,0,0,0],[1,0.51,0,0,0],[1,0.75,0,0,0],[1,1,0,0,0]];" parent="1" vertex="1">
                    <mxGeometry x="185" y="671.5" width="470" height="71" as="geometry"/>
                </mxCell>
                <mxCell id="14" value="&lt;font style=&quot;font-size: 10px;&quot;&gt;&lt;b&gt;Camada de infraestrutura&lt;/b&gt;&lt;/font&gt;" style="text;html=1;strokeColor=none;fillColor=none;align=center;verticalAlign=middle;whiteSpace=wrap;rounded=0;strokeWidth=2;fontColor=#000000;" parent="1" vertex="1">
                    <mxGeometry x="185" y="670.5" width="130" height="20" as="geometry"/>
                </mxCell>
                <mxCell id="51" style="edgeStyle=none;html=1;exitX=0.19;exitY=1;exitDx=0;exitDy=0;exitPerimeter=0;entryX=0;entryY=0.5;entryDx=0;entryDy=0;fontSize=8;fontColor=#000000;dashed=1;strokeWidth=2;strokeColor=#000000;" parent="1" source="16" target="44" edge="1">
                    <mxGeometry relative="1" as="geometry">
                        <Array as="points">
                            <mxPoint x="246" y="514.5"/>
                        </Array>
                    </mxGeometry>
                </mxCell>
                <mxCell id="52" style="edgeStyle=none;html=1;exitX=0.09;exitY=1;exitDx=0;exitDy=0;exitPerimeter=0;entryX=0;entryY=0.5;entryDx=0;entryDy=0;dashed=1;strokeColor=#000000;strokeWidth=2;fontSize=8;fontColor=#000000;" parent="1" source="16" target="9" edge="1">
                    <mxGeometry relative="1" as="geometry">
                        <Array as="points">
                            <mxPoint x="215" y="610.5"/>
                        </Array>
                    </mxGeometry>
                </mxCell>
                <mxCell id="16" value="" style="rounded=1;whiteSpace=wrap;html=1;strokeWidth=2;fillColor=#3399FF;points=[[0,0,0,0,0],[0,0.24,0,0,0],[0,0.5,0,0,0],[0,0.76,0,0,0],[0,1,0,0,0],[0.09,1,0,0,0],[0.19,1,0,0,0],[0.25,0,0,0,0],[0.5,0,0,0,0],[0.75,0,0,0,0],[0.75,1,0,0,0],[1,0,0,0,0],[1,0.26,0,0,0],[1,0.5,0,0,0],[1,0.76,0,0,0],[1,1,0,0,0]];" parent="1" vertex="1">
                    <mxGeometry x="185" y="380.5" width="470" height="70" as="geometry"/>
                </mxCell>
                <mxCell id="17" value="&lt;font style=&quot;font-size: 10px;&quot;&gt;&lt;b&gt;Camada de aplicação&lt;/b&gt;&lt;/font&gt;" style="text;html=1;strokeColor=none;fillColor=none;align=center;verticalAlign=middle;whiteSpace=wrap;rounded=0;strokeWidth=2;fontColor=#000000;" parent="1" vertex="1">
                    <mxGeometry x="187" y="380.5" width="108" height="20" as="geometry"/>
                </mxCell>
                <mxCell id="18" value="" style="rounded=1;whiteSpace=wrap;html=1;strokeWidth=2;fillColor=#FF66B3;" parent="1" vertex="1">
                    <mxGeometry x="185" y="260.5" width="470" height="51" as="geometry"/>
                </mxCell>
                <mxCell id="19" value="&lt;font style=&quot;font-size: 10px;&quot;&gt;Camada de apresentação&lt;/font&gt;" style="text;html=1;strokeColor=none;fillColor=none;align=center;verticalAlign=middle;whiteSpace=wrap;rounded=0;strokeWidth=2;fontColor=#000000;" parent="1" vertex="1">
                    <mxGeometry x="185" y="260.5" width="120" height="20" as="geometry"/>
                </mxCell>
                <mxCell id="53" style="edgeStyle=none;html=1;exitX=0.25;exitY=1;exitDx=0;exitDy=0;entryX=0.25;entryY=0;entryDx=0;entryDy=0;dashed=1;strokeColor=#000000;strokeWidth=2;fontSize=8;fontColor=#000000;" parent="1" source="44" target="9" edge="1">
                    <mxGeometry relative="1" as="geometry"/>
                </mxCell>
                <mxCell id="44" value="" style="rounded=1;whiteSpace=wrap;html=1;strokeWidth=2;fillColor=#FF9933;" parent="1" vertex="1">
                    <mxGeometry x="275" y="479.5" width="380" height="70" as="geometry"/>
                </mxCell>
                <mxCell id="45" value="&lt;font style=&quot;font-size: 10px;&quot;&gt;&lt;b&gt;Camada de Aplicação&lt;/b&gt;&lt;/font&gt;" style="text;html=1;strokeColor=none;fillColor=none;align=center;verticalAlign=middle;whiteSpace=wrap;rounded=0;strokeWidth=2;fontColor=#000000;" parent="1" vertex="1">
                    <mxGeometry x="276" y="482.5" width="110" height="10" as="geometry"/>
                </mxCell>
                <mxCell id="46" value="&lt;font style=&quot;font-size: 8px;&quot;&gt;Mais Abstrata&lt;/font&gt;" style="text;html=1;strokeColor=none;fillColor=none;align=center;verticalAlign=middle;whiteSpace=wrap;rounded=0;strokeWidth=2;fontSize=10;fontColor=#000000;" parent="1" vertex="1">
                    <mxGeometry x="276" y="591" width="60" height="11" as="geometry"/>
                </mxCell>
                <mxCell id="47" value="&lt;font style=&quot;font-size: 8px;&quot;&gt;Menos Abstrata&lt;/font&gt;" style="text;html=1;strokeColor=none;fillColor=none;align=center;verticalAlign=middle;whiteSpace=wrap;rounded=0;strokeWidth=2;fontSize=10;fontColor=#000000;" parent="1" vertex="1">
                    <mxGeometry x="187" y="681.5" width="68" height="17" as="geometry"/>
                </mxCell>
                <mxCell id="48" value="&lt;font style=&quot;font-size: 8px;&quot;&gt;Menos Abstrata&lt;/font&gt;" style="text;html=1;strokeColor=none;fillColor=none;align=center;verticalAlign=middle;whiteSpace=wrap;rounded=0;strokeWidth=2;fontSize=10;fontColor=#000000;" parent="1" vertex="1">
                    <mxGeometry x="188" y="394.5" width="70" height="10" as="geometry"/>
                </mxCell>
                <mxCell id="58" value="" style="curved=1;endArrow=classic;html=1;strokeColor=#0000FF;strokeWidth=2;fontSize=8;fontColor=#000000;" parent="1" edge="1">
                    <mxGeometry width="50" height="50" relative="1" as="geometry">
                        <mxPoint x="495" y="371.5" as="sourcePoint"/>
                        <mxPoint x="395" y="371.5" as="targetPoint"/>
                        <Array as="points">
                            <mxPoint x="460" y="801.5"/>
                            <mxPoint x="410" y="680.5"/>
                        </Array>
                    </mxGeometry>
                </mxCell>
                <mxCell id="8MaVphWinOHdKKM1jP0b-58" value="" style="whiteSpace=wrap;html=1;dashed=1;strokeColor=#000066;strokeWidth=3;fontSize=11;fontColor=#000000;fillColor=none;gradientColor=#33FF99;" vertex="1" parent="1">
                    <mxGeometry x="500" y="370.5" width="150" height="379.5" as="geometry"/>
                </mxCell>
            </root>
        </mxGraphModel>
    </diagram>
    <diagram name="Arquitetura Hexagonal" id="r98HRUYSou4GZagF56tW">
        <mxGraphModel dx="662" dy="475" grid="1" gridSize="10" guides="1" tooltips="1" connect="1" arrows="1" fold="1" page="1" pageScale="1" pageWidth="850" pageHeight="1100" math="0" shadow="0">
            <root>
                <mxCell id="M18v-1XiULkkr_84oNeE-0"/>
                <mxCell id="M18v-1XiULkkr_84oNeE-1" parent="M18v-1XiULkkr_84oNeE-0"/>
                <mxCell id="M18v-1XiULkkr_84oNeE-2" value="ecommerce-node-api (back-end)" style="verticalAlign=top;align=left;spacingTop=8;spacingLeft=2;spacingRight=12;shape=cube;size=10;direction=south;fontStyle=4;html=1;strokeWidth=2;fillColor=#999999;fontColor=#000000;strokeColor=#000000;" vertex="1" parent="M18v-1XiULkkr_84oNeE-1">
                    <mxGeometry x="170" y="180" width="500" height="430" as="geometry"/>
                </mxCell>
                <mxCell id="M18v-1XiULkkr_84oNeE-3" value="ecommerce-web-app (front-end)" style="verticalAlign=top;align=left;spacingTop=8;spacingLeft=2;spacingRight=12;shape=cube;size=10;direction=south;fontStyle=4;html=1;strokeWidth=2;fillColor=#999999;strokeColor=#000000;fontColor=#000000;" vertex="1" parent="M18v-1XiULkkr_84oNeE-1">
                    <mxGeometry x="170" y="59.5" width="500" height="101" as="geometry"/>
                </mxCell>
                <mxCell id="M18v-1XiULkkr_84oNeE-4" value="" style="shape=cylinder3;whiteSpace=wrap;html=1;boundedLbl=1;backgroundOutline=1;size=15;strokeWidth=2;fontColor=#000000;fillColor=#999999;strokeColor=#000000;" vertex="1" parent="M18v-1XiULkkr_84oNeE-1">
                    <mxGeometry x="255" y="630" width="330" height="90" as="geometry"/>
                </mxCell>
                <mxCell id="M18v-1XiULkkr_84oNeE-5" value="&lt;font style=&quot;font-size: 16px;&quot;&gt;Database (Relaconal)&lt;/font&gt;" style="text;html=1;strokeColor=none;fillColor=none;align=center;verticalAlign=middle;whiteSpace=wrap;rounded=0;strokeWidth=2;fontColor=#000000;" vertex="1" parent="M18v-1XiULkkr_84oNeE-1">
                    <mxGeometry x="332.5" y="660" width="175" height="44" as="geometry"/>
                </mxCell>
                <mxCell id="M18v-1XiULkkr_84oNeE-17" value="" style="rounded=1;whiteSpace=wrap;html=1;strokeWidth=2;fillColor=#FF66B3;" vertex="1" parent="M18v-1XiULkkr_84oNeE-1">
                    <mxGeometry x="180" y="100" width="470" height="51" as="geometry"/>
                </mxCell>
                <mxCell id="M18v-1XiULkkr_84oNeE-18" value="&lt;font style=&quot;font-size: 10px;&quot;&gt;Camada de apresentação&lt;/font&gt;" style="text;html=1;strokeColor=none;fillColor=none;align=center;verticalAlign=middle;whiteSpace=wrap;rounded=0;strokeWidth=2;fontColor=#000000;" vertex="1" parent="M18v-1XiULkkr_84oNeE-1">
                    <mxGeometry x="180" y="100" width="120" height="20" as="geometry"/>
                </mxCell>
                <mxCell id="M18v-1XiULkkr_84oNeE-19" style="edgeStyle=none;html=1;exitX=0.25;exitY=1;exitDx=0;exitDy=0;entryX=0.25;entryY=0;entryDx=0;entryDy=0;dashed=1;strokeColor=#000000;strokeWidth=2;fontSize=8;fontColor=#000000;" edge="1" parent="M18v-1XiULkkr_84oNeE-1" target="M18v-1XiULkkr_84oNeE-6">
                    <mxGeometry relative="1" as="geometry">
                        <mxPoint x="437.5" y="399" as="sourcePoint"/>
                    </mxGeometry>
                </mxCell>
                <mxCell id="KVx4F0bvak__hrmYUyAH-11" value="" style="shape=hexagon;perimeter=hexagonPerimeter2;whiteSpace=wrap;html=1;fixedSize=1;fontColor=#000000;fillColor=#3333FF;gradientColor=#33FF99;strokeColor=#000000;size=90;" vertex="1" parent="M18v-1XiULkkr_84oNeE-1">
                    <mxGeometry x="220" y="220.01" width="400" height="360" as="geometry"/>
                </mxCell>
                <mxCell id="KVx4F0bvak__hrmYUyAH-12" value="" style="shape=hexagon;perimeter=hexagonPerimeter2;whiteSpace=wrap;html=1;fixedSize=1;fontColor=#000000;fillColor=#e3c800;strokeColor=#000000;dashed=1;size=60;" vertex="1" parent="M18v-1XiULkkr_84oNeE-1">
                    <mxGeometry x="270" y="265.01" width="300" height="270" as="geometry"/>
                </mxCell>
                <mxCell id="KVx4F0bvak__hrmYUyAH-6" value="&lt;font color=&quot;#000000&quot;&gt;Camada de Aplicação&lt;/font&gt;&lt;span style=&quot;color: rgba(0, 0, 0, 0); font-family: monospace; font-size: 0px; text-align: start;&quot;&gt;%3CmxGraphModel%3E%3Croot%3E%3CmxCell%20id%3D%220%22%2F%3E%3CmxCell%20id%3D%221%22%20parent%3D%220%22%2F%3E%3CmxCell%20id%3D%222%22%20value%3D%22%22%20style%3D%22shape%3Dhexagon%3Bperimeter%3DhexagonPerimeter2%3BwhiteSpace%3Dwrap%3Bhtml%3D1%3BfixedSize%3D1%3BfontColor%3D%23000000%3BfillColor%3D%23e3c800%3BstrokeColor%3D%23B09500%3B%22%20vertex%3D%221%22%20parent%3D%221%22%3E%3CmxGeometry%20x%3D%22270%22%20y%3D%22265.01%22%20width%3D%22300%22%20height%3D%22270%22%20as%3D%22geometry%22%2F%3E%3C%2FmxCell%3E%3C%2Froot%3E%3C%2FmxGraphModel%3E&lt;/span&gt;&lt;span style=&quot;color: rgba(0, 0, 0, 0); font-family: monospace; font-size: 0px; text-align: start;&quot;&gt;%3CmxGraphModel%3E%3Croot%3E%3CmxCell%20id%3D%220%22%2F%3E%3CmxCell%20id%3D%221%22%20parent%3D%220%22%2F%3E%3CmxCell%20id%3D%222%22%20value%3D%22%22%20style%3D%22shape%3Dhexagon%3Bperimeter%3DhexagonPerimeter2%3BwhiteSpace%3Dwrap%3Bhtml%3D1%3BfixedSize%3D1%3BfontColor%3D%23000000%3BfillColor%3D%23e3c800%3BstrokeColor%3D%23B09500%3B%22%20vertex%3D%221%22%20parent%3D%221%22%3E%3CmxGeometry%20x%3D%22270%22%20y%3D%22265.01%22%20width%3D%22300%22%20height%3D%22270%22%20as%3D%22geometry%22%2F%3E%3C%2FmxCell%3E%3C%2Froot%3E%3C%2FmxGraphModel%3E&lt;/span&gt;" style="text;html=1;align=center;verticalAlign=middle;whiteSpace=wrap;rounded=0;fontStyle=1" vertex="1" parent="M18v-1XiULkkr_84oNeE-1">
                    <mxGeometry x="332.5" y="274.01" width="67.5" height="20" as="geometry"/>
                </mxCell>
                <mxCell id="KVx4F0bvak__hrmYUyAH-13" value="" style="shape=hexagon;perimeter=hexagonPerimeter2;whiteSpace=wrap;html=1;fixedSize=1;fontColor=#ffffff;fillColor=#e51400;strokeColor=#000000;size=40;" vertex="1" parent="M18v-1XiULkkr_84oNeE-1">
                    <mxGeometry x="320" y="305" width="200" height="180" as="geometry"/>
                </mxCell>
                <mxCell id="KVx4F0bvak__hrmYUyAH-7" value="&lt;font color=&quot;#000000&quot;&gt;Camada de Domínio&lt;/font&gt;" style="text;html=1;align=center;verticalAlign=middle;whiteSpace=wrap;rounded=0;fontStyle=1" vertex="1" parent="M18v-1XiULkkr_84oNeE-1">
                    <mxGeometry x="385" y="385" width="70" height="20" as="geometry"/>
                </mxCell>
                <mxCell id="KVx4F0bvak__hrmYUyAH-14" value="&lt;font color=&quot;#000000&quot;&gt;Camada de Apresentação&lt;/font&gt;&lt;span style=&quot;color: rgba(0, 0, 0, 0); font-family: monospace; font-size: 0px; text-align: start;&quot;&gt;%3CmxGraphModel%3E%3Croot%3E%3CmxCell%20id%3D%220%22%2F%3E%3CmxCell%20id%3D%221%22%20parent%3D%220%22%2F%3E%3CmxCell%20id%3D%222%22%20value%3D%22%22%20style%3D%22shape%3Dhexagon%3Bperimeter%3DhexagonPerimeter2%3BwhiteSpace%3Dwrap%3Bhtml%3D1%3BfixedSize%3D1%3BfontColor%3D%23000000%3BfillColor%3D%23e3c800%3BstrokeColor%3D%23B09500%3B%22%20vertex%3D%221%22%20parent%3D%221%22%3E%3CmxGeometry%20x%3D%22270%22%20y%3D%22265.01%22%20width%3D%22300%22%20height%3D%22270%22%20as%3D%22geometry%22%2F%3E%3C%2FmxCell%3E%3C%2Froot%3E%3C%2FmxGraphModel%3E&lt;/span&gt;&lt;span style=&quot;color: rgba(0, 0, 0, 0); font-family: monospace; font-size: 0px; text-align: start;&quot;&gt;%3CmxGraphModel%3E%3Croot%3E%3CmxCell%20id%3D%220%22%2F%3E%3CmxCell%20id%3D%221%22%20parent%3D%220%22%2F%3E%3CmxCell%20id%3D%222%22%20value%3D%22%22%20style%3D%22shape%3Dhexagon%3Bperimeter%3DhexagonPerimeter2%3BwhiteSpace%3Dwrap%3Bhtml%3D1%3BfixedSize%3D1%3BfontColor%3D%23000000%3BfillColor%3D%23e3c800%3BstrokeColor%3D%23B09500%3B%22%20vertex%3D%221%22%20parent%3D%221%22%3E%3CmxGeometry%20x%3D%22270%22%20y%3D%22265.01%22%20width%3D%22300%22%20height%3D%22270%22%20as%3D%22geometry%22%2F%3E%3C%2FmxCell%3E%3C%2Froot%3E%3C%2FmxGraphModel%3E&lt;/span&gt;" style="text;html=1;align=center;verticalAlign=middle;whiteSpace=wrap;rounded=0;fontStyle=1" vertex="1" parent="M18v-1XiULkkr_84oNeE-1">
                    <mxGeometry x="300" y="227" width="84.5" height="20" as="geometry"/>
                </mxCell>
                <mxCell id="KVx4F0bvak__hrmYUyAH-15" value="&lt;font color=&quot;#000000&quot;&gt;Camada de Infraestrutura&lt;/font&gt;" style="text;html=1;align=center;verticalAlign=middle;whiteSpace=wrap;rounded=0;fontStyle=1" vertex="1" parent="M18v-1XiULkkr_84oNeE-1">
                    <mxGeometry x="307" y="550" width="86.5" height="20" as="geometry"/>
                </mxCell>
                <mxCell id="KVx4F0bvak__hrmYUyAH-17" style="edgeStyle=none;html=1;exitX=0.5;exitY=1;exitDx=0;exitDy=0;entryX=0.5;entryY=1;entryDx=0;entryDy=0;dashed=1;strokeColor=#000000;strokeWidth=2;fontSize=11;fontColor=#000000;" edge="1" parent="M18v-1XiULkkr_84oNeE-1" source="KVx4F0bvak__hrmYUyAH-11" target="KVx4F0bvak__hrmYUyAH-12">
                    <mxGeometry relative="1" as="geometry"/>
                </mxCell>
                <mxCell id="KVx4F0bvak__hrmYUyAH-16" style="edgeStyle=none;html=1;exitX=0.5;exitY=0;exitDx=0;exitDy=0;entryX=0.5;entryY=0;entryDx=0;entryDy=0;fontSize=11;fontColor=#000000;dashed=1;strokeColor=#000000;strokeWidth=2;" edge="1" parent="M18v-1XiULkkr_84oNeE-1" source="KVx4F0bvak__hrmYUyAH-11" target="KVx4F0bvak__hrmYUyAH-12">
                    <mxGeometry relative="1" as="geometry"/>
                </mxCell>
                <mxCell id="KVx4F0bvak__hrmYUyAH-18" style="edgeStyle=none;html=1;exitX=0.5;exitY=1;exitDx=0;exitDy=0;entryX=0.5;entryY=1;entryDx=0;entryDy=0;dashed=1;strokeColor=#000000;strokeWidth=2;fontSize=11;fontColor=#000000;" edge="1" parent="M18v-1XiULkkr_84oNeE-1" source="KVx4F0bvak__hrmYUyAH-12" target="KVx4F0bvak__hrmYUyAH-13">
                    <mxGeometry relative="1" as="geometry"/>
                </mxCell>
                <mxCell id="KVx4F0bvak__hrmYUyAH-19" style="edgeStyle=none;html=1;exitX=0.5;exitY=0;exitDx=0;exitDy=0;entryX=0.5;entryY=0;entryDx=0;entryDy=0;dashed=1;strokeColor=#000000;strokeWidth=2;fontSize=11;fontColor=#000000;" edge="1" parent="M18v-1XiULkkr_84oNeE-1" source="KVx4F0bvak__hrmYUyAH-12" target="KVx4F0bvak__hrmYUyAH-13">
                    <mxGeometry relative="1" as="geometry"/>
                </mxCell>
                <mxCell id="M18v-1XiULkkr_84oNeE-25" value="" style="curved=1;endArrow=classic;html=1;strokeColor=#0000FF;strokeWidth=2;fontSize=8;fontColor=#000000;" edge="1" parent="M18v-1XiULkkr_84oNeE-1">
                    <mxGeometry width="50" height="50" relative="1" as="geometry">
                        <mxPoint x="476" y="201" as="sourcePoint"/>
                        <mxPoint x="447" y="201" as="targetPoint"/>
                        <Array as="points">
                            <mxPoint x="480" y="640"/>
                            <mxPoint x="462" y="540"/>
                        </Array>
                    </mxGeometry>
                </mxCell>
                <mxCell id="KVx4F0bvak__hrmYUyAH-20" value="" style="rounded=0;whiteSpace=wrap;html=1;dashed=1;strokeColor=#000066;fontSize=11;fontColor=#000000;fillColor=none;gradientColor=#33FF99;strokeWidth=3;" vertex="1" parent="M18v-1XiULkkr_84oNeE-1">
                    <mxGeometry x="490" y="200" width="40" height="394" as="geometry"/>
                </mxCell>
            </root>
        </mxGraphModel>
    </diagram>
</mxfile>